{
  "accessors": [
    {
      "bufferView": 2,
      "componentType": 5126,
      "count": 48,
      "max": [
        -1.2555270195007324,
        -1.0519479513168335,
        2.090790033340454
      ],
      "min": [
        -1.5916789770126343,
        -1.442510962486267,
        1.7633659839630127
      ],
      "type": "VEC3"
    },
    {
      "bufferView": 2,
      "byteOffset": 576,
      "componentType": 5126,
      "count": 48,
      "max": [
        0.9701368808746338,
        0.8576633930206299,
        0.918647825717926
      ],
      "min": [
        -0.9667092561721802,
        -0.857666015625,
        -0.923995852470398
      ],
      "type": "VEC3"
    },
    {
      "bufferView": 3,
      "componentType": 5126,
      "count": 48,
      "max": [
        0.922840416431427,
        0.49427902698516846,
        -0.32409995794296265,
        1.0
      ],
      "min": [
        0.23108665645122528,
        -0.5562466979026794,
        -0.9666971564292908,
        1.0
      ],
      "type": "VEC4"
    },
    {
      "bufferView": 1,
      "componentType": 5126,
      "count": 48,
      "max": [
        0.047988999634981155,
        0.3140699863433838
      ],
      "min": [
        0.014708999544382095,
        0.1684589982032776
      ],
      "type": "VEC2"
    },
    {
      "bufferView": 0,
      "componentType": 5125,
      "count": 108,
      "type": "SCALAR"
    },
    {
      "bufferView": 2,
      "byteOffset": 1152,
      "componentType": 5126,
      "count": 6480,
      "max": [
        1.7469830513000488,
        1.755059003829956,
        8.27081298828125
      ],
      "min": [
        -1.7469830513000488,
        -2.2461180686950684,
        0.05076399818062782
      ],
      "type": "VEC3"
    },
    {
      "bufferView": 2,
      "byteOffset": 78912,
      "componentType": 5126,
      "count": 6480,
      "max": [
        1.0,
        1.0,
        1.0
      ],
      "min": [
        -1.0,
        -1.0,
        -1.0
      ],
      "type": "VEC3"
    },
    {
      "bufferView": 3,
      "byteOffset": 768,
      "componentType": 5126,
      "count": 6480,
      "max": [
        1.0,
        1.0,
        1.0,
        1.0
      ],
      "min": [
        -1.0,
        -1.0,
        -1.0,
        -1.0
      ],
      "type": "VEC4"
    },
    {
      "bufferView": 1,
      "byteOffset": 384,
      "componentType": 5126,
      "count": 6480,
      "max": [
        0.9959089756011963,
        0.9950699806213379
      ],
      "min": [
        0.002966000000014901,
        0.00762399984523654
      ],
      "type": "VEC2"
    },
    {
      "bufferView": 0,
      "byteOffset": 432,
      "componentType": 5125,
      "count": 15756,
      "type": "SCALAR"
    }
  ],
  "asset": {
    "extras": {
      "author": "little.bucket (https://sketchfab.com/little.bucket)",
      "license": "CC-BY-NC-ND-4.0 (http://creativecommons.org/licenses/by-nc-nd/4.0/)",
      "source": "https://sketchfab.com/3d-models/tora-kun-50f9bbf1bcba4e06b9511dd791b842f2",
      "title": "Tora-kun"
    },
    "generator": "Sketchfab-12.65.0",
    "version": "2.0"
  },
  "bufferViews": [
    {
      "buffer": 0,
      "byteLength": 63456,
      "name": "floatBufferViews",
      "target": 34963
    },
    {
      "buffer": 0,
      "byteLength": 52224,
      "byteOffset": 63456,
      "byteStride": 8,
      "name": "floatBufferViews",
      "target": 34962
    },
    {
      "buffer": 0,
      "byteLength": 156672,
      "byteOffset": 115680,
      "byteStride": 12,
      "name": "floatBufferViews",
      "target": 34962
    },
    {
      "buffer": 0,
      "byteLength": 104448,
      "byteOffset": 272352,
      "byteStride": 16,
      "name": "floatBufferViews",
      "target": 34962
    }
  ],
  "buffers": [
    {
      "byteLength": 376800,
      "uri": "scene.bin"
    }
  ],
  "images": [
    {
      "uri": "textures/initialShadingGroup_baseColor.png"
    },
    {
      "uri": "textures/initialShadingGroup_metallicRoughness.png"
    },
    {
      "uri": "textures/initialShadingGroup_normal.png"
    }
  ],
  "materials": [
    {
      "doubleSided": true,
      "name": "initialShadingGroup",
      "normalTexture": {
        "index": 2
      },
      "occlusionTexture": {
        "index": 1,
        "strength": 0.37234303154877657
      },
      "pbrMetallicRoughness": {
        "baseColorTexture": {
          "index": 0
        },
        "metallicRoughnessTexture": {
          "index": 1
        }
      }
    }
  ],
  "meshes": [
    {
      "name": "Object_0",
      "primitives": [
        {
          "attributes": {
            "NORMAL": 1,
            "POSITION": 0,
            "TANGENT": 2,
            "TEXCOORD_0": 3
          },
          "indices": 4,
          "material": 0,
          "mode": 4
        }
      ]
    },
    {
      "name": "Object_1",
      "primitives": [
        {
          "attributes": {
            "NORMAL": 6,
            "POSITION": 5,
            "TANGENT": 7,
            "TEXCOORD_0": 8
          },
          "indices": 9,
          "material": 0,
          "mode": 4
        }
      ]
    }
  ],
  "nodes": [
    {
      "children": [
        1
      ],
      "matrix": [
        1.0,
        0.0,
        0.0,
        0.0,
        0.0,
        2.220446049250313e-16,
        -1.0,
        0.0,
        0.0,
        1.0,
        2.220446049250313e-16,
        0.0,
        0.0,
        0.0,
        0.0,
        1.0
      ],
      "name": "Sketchfab_model"
    },
    {
      "children": [
        2,
        3
      ],
      "name": "tora-kun.obj.cleaner.materialmerger.gles"
    },
    {
      "mesh": 0,
      "name": "Object_2"
    },
    {
      "mesh": 1,
      "name": "Object_3"
    }
  ],
  "samplers": [
    {
      "magFilter": 9729,
      "minFilter": 9987,
      "wrapS": 10497,
      "wrapT": 10497
    }
  ],
  "scene": 0,
  "scenes": [
    {
      "name": "Sketchfab_Scene",
      "nodes": [
        0
      ]
    }
  ],
  "textures": [
    {
      "sampler": 0,
      "source": 0
    },
    {
      "sampler": 0,
      "source": 1
    },
    {
      "sampler": 0,
      "source": 2
    }
  ]
}
