<svg width="131" height="38" viewBox="0 0 131 38" fill="none" xmlns="http://www.w3.org/2000/svg">
<g clip-path="url(#clip0_1_98)">
<path d="M8.19606 0C8.52838 0.642132 8.82228 1.22478 9.12923 1.80031C9.65486 2.78569 10.5501 3.45749 11.265 4.28177C14.2289 7.70009 16.0528 11.6319 16.5439 16.1307C17.0464 20.736 15.946 24.9455 13.1537 28.6766C12.2885 29.8327 11.3062 30.8826 10.1483 31.7536C9.49033 32.2483 9.21424 32.922 9.21706 33.7081C9.22003 34.5502 9.12463 35.3905 9.19154 36.2342C9.20667 36.4274 9.33441 36.7502 8.95254 36.7812C8.57393 36.8122 8.18508 36.5241 8.17321 36.2058C8.14591 35.4714 8.05705 34.7435 7.98702 34.0128C7.88688 32.9672 7.43424 32.2027 6.60937 31.4904C3.00026 28.3753 0.660955 24.5028 0.114997 19.7011C-0.247738 16.5115 0.273888 13.4002 1.33524 10.3879C2.40713 7.34543 4.09752 4.68627 6.45597 2.46707C6.50151 2.4242 6.54469 2.37881 6.59053 2.33639C7.70841 1.29806 7.70841 1.29806 8.19606 0ZM102.414 31.4163C103.336 31.4163 104.259 31.4039 105.181 31.4195C106.172 31.4363 107.151 31.3477 108.112 31.1184C110.889 30.4554 113.068 29.0016 114.288 26.3345C114.959 24.8671 115.083 23.312 115.018 21.7114C114.89 18.6375 112.849 15.852 109.949 14.8603C108.053 14.2122 106.097 14.2651 104.146 14.3362C102.365 14.401 100.587 14.4537 98.8077 14.3231C98.0822 14.2697 97.8711 14.4024 97.612 15.0814C97.4972 15.3839 97.5821 15.5172 97.9002 15.5482C98.4295 15.5994 98.9541 15.6832 99.4597 15.8597C99.8723 16.0038 100.106 16.2923 100.14 16.7244C100.182 17.2533 100.23 17.7836 100.231 18.3134C100.24 21.018 100.243 23.7228 100.231 26.4272C100.227 27.2542 100.186 28.082 100.134 28.9077C100.086 29.6747 99.8505 29.9202 99.0989 30.0733C98.9305 30.1074 98.7593 30.1304 98.5927 30.1709C98.2581 30.2527 97.934 30.7731 98.0083 31.1301C98.0904 31.5235 98.4236 31.3916 98.6611 31.394C99.9122 31.4068 101.163 31.3998 102.414 31.3998C102.414 31.4057 102.414 31.4108 102.414 31.4163ZM102.985 16.6644C102.987 15.9197 103.081 15.7557 103.82 15.6948C108.4 15.3173 111.952 17.65 112.076 22.6275C112.114 24.1822 111.939 25.6915 111.184 27.0789C110.246 28.8022 108.841 29.8333 106.837 30.0016C105.998 30.0722 105.181 30.0188 104.38 29.7996C103.36 29.5206 102.992 29.0253 102.987 27.9683C102.978 26.0767 102.985 24.1847 102.985 22.2929C102.984 20.4169 102.982 18.5407 102.985 16.6644ZM127.9 21.3854C129.149 20.5694 129.847 19.4509 129.719 17.9253C129.585 16.3166 128.68 15.2909 127.184 14.7625C126.86 14.6483 126.526 14.555 126.189 14.4955C125.009 14.288 123.817 14.4166 122.631 14.3992C120.99 14.3749 119.347 14.4028 117.707 14.3622C117.04 14.3455 116.883 14.397 116.673 15.0142C116.561 15.3468 116.641 15.5098 117.007 15.5525C117.456 15.605 117.905 15.6796 118.346 15.7774C118.734 15.8633 118.977 16.1192 119.009 16.5289C119.049 17.0267 119.113 17.5271 119.096 18.0242C118.992 21.0867 119.04 24.15 119.022 27.2133C119.02 27.5572 119.021 27.9014 119.017 28.2451C119.002 29.7923 118.894 29.9148 117.354 30.1536C116.93 30.2189 116.566 30.6372 116.611 31.0715C116.663 31.569 117.08 31.3713 117.353 31.3918C117.757 31.4223 118.166 31.3958 118.572 31.4007C119.588 31.4128 120.606 31.3949 121.62 31.4511C123.476 31.5536 125.319 31.5152 127.077 30.8529C128.585 30.2848 129.928 29.4544 130.599 27.8842C131.399 26.0169 131.074 23.6263 128.971 22.4561C128.476 22.1808 127.942 22.0114 127.383 21.7776C127.532 21.5545 127.734 21.494 127.9 21.3854ZM121.759 23.3725C121.76 23.1469 121.765 22.8965 122.068 22.8852C123.558 22.8297 125.048 22.8087 126.413 23.5573C127.681 24.2527 128.245 25.5212 128.01 27.2637C127.827 28.6189 127.064 29.521 125.729 29.8872C124.772 30.1498 123.804 30.083 122.856 29.8484C122.192 29.6839 121.809 29.0348 121.766 28.158C121.765 28.1265 121.764 28.0955 121.764 28.0641C121.764 27.2975 121.764 26.5315 121.764 25.7652C121.761 25.7652 121.76 25.7652 121.758 25.7652C121.759 24.9678 121.757 24.1701 121.759 23.3725ZM121.77 16.513C121.777 15.8652 121.907 15.7455 122.536 15.7332C123.509 15.7142 124.469 15.7396 125.376 16.1748C126.001 16.4746 126.46 16.9196 126.692 17.5655C127.035 18.5143 127.04 19.4704 126.582 20.3846C126.182 21.1835 125.441 21.4732 124.607 21.5158C123.797 21.5567 122.983 21.521 122.171 21.5321C121.828 21.5369 121.753 21.3528 121.755 21.058C121.763 20.2772 121.758 19.4962 121.758 18.7156C121.761 18.7156 121.765 18.7156 121.768 18.7156C121.768 17.981 121.761 17.2469 121.77 16.513ZM25.7436 26.2135C25.7436 27.1047 25.7424 27.9962 25.7438 28.8872C25.7453 29.7742 25.9418 30.0052 26.8331 30.1504C27.1337 30.1995 27.4273 30.2142 27.4357 30.6427C27.4468 31.2058 27.3231 31.301 26.7521 31.2709C25.2688 31.1924 23.7836 31.1857 22.2999 31.2764C22.0269 31.2931 21.7563 31.3548 21.6793 30.9751C21.5863 30.5159 21.6978 30.2613 22.1009 30.1943C23.5029 29.9629 23.4128 29.6601 23.4753 28.4785C23.5668 26.7439 23.5068 25.0093 23.5527 23.2761C23.5708 22.5937 23.3287 22.1714 22.6915 21.9572C22.4399 21.8727 22.1939 21.7709 21.9442 21.68C21.7336 21.6032 21.5045 21.5232 21.5168 21.2527C21.5299 20.9643 21.7733 20.8803 22.0077 20.8292C22.4197 20.7391 22.8359 20.6681 23.2489 20.5823C23.9541 20.4361 24.6502 20.2507 25.32 19.9863C25.7038 19.8349 25.8149 20.0046 25.8093 20.3363C25.8044 20.632 25.7584 20.9269 25.7458 21.2228C25.7311 21.5658 25.8843 21.6132 26.1361 21.4134C26.716 20.9535 27.3572 20.5988 28.0263 20.2891C29.7718 19.481 31.2249 19.8557 32.3274 21.4302C32.5232 21.7098 32.6584 21.6177 32.8523 21.4789C33.5654 20.9689 34.2977 20.4941 35.1229 20.1749C37.2747 19.3435 39.2781 20.3655 39.8392 22.6072C40.1499 23.8489 40.1377 25.1161 40.0522 26.3821C39.9878 27.3353 40.0178 28.2885 40.0289 29.241C40.0335 29.636 40.297 29.861 40.6512 29.9755C40.8733 30.0471 41.1029 30.0982 41.3317 30.1468C41.8787 30.2627 42.0336 30.5933 41.7834 31.0956C41.6972 31.2682 41.5668 31.2957 41.3977 31.2829C39.8205 31.1629 38.2412 31.2328 36.6627 31.243C36.4011 31.2449 36.1918 31.2449 36.161 30.9195C36.1322 30.6144 36.1049 30.3336 36.4897 30.1965C37.7152 29.7601 37.7186 29.7526 37.7252 28.4219C37.7321 27.0774 37.7377 25.7324 37.7215 24.3881C37.6959 22.292 36.0823 21.2128 34.1227 21.9685C33.9773 22.0247 33.8357 22.0928 33.6961 22.163C32.8257 22.5988 32.861 22.6387 32.9168 23.619C32.9858 24.8344 32.9494 26.0566 32.956 27.2754C32.9591 27.9009 32.9721 28.527 32.9527 29.1517C32.9367 29.6622 33.1701 29.9421 33.6561 30.0427C33.8245 30.0771 33.9887 30.1361 34.1583 30.1596C34.5723 30.217 34.7063 30.4453 34.6446 30.8473C34.5798 31.2697 34.3427 31.274 33.9747 31.263C32.5226 31.219 31.0686 31.1734 29.6163 31.2869C29.3135 31.3108 28.9622 31.4004 28.9018 30.9214C28.8374 30.411 28.9423 30.2637 29.4725 30.1593C30.5147 29.9531 30.6609 29.799 30.6727 28.7357C30.6891 27.2819 30.6776 25.8278 30.6811 24.3739C30.6818 24.042 30.6238 23.7188 30.5346 23.403C30.143 22.0182 29.0405 21.3891 27.6465 21.7511C27.4501 21.8021 27.2556 21.8638 27.066 21.936C25.8927 22.3832 25.737 22.6121 25.737 23.8669C25.737 24.6487 25.737 25.4304 25.737 26.2123C25.7394 26.2135 25.7413 26.2135 25.7436 26.2135ZM78.1727 37.7007C79.9092 37.1201 81.3846 36.1755 82.1874 34.47C83.12 32.4869 82.4433 30.2874 80.0515 29.9169C79.3882 29.8141 78.7155 29.7747 78.0501 29.6864C77.2612 29.5826 76.4529 29.6527 75.6767 29.4381C75.3221 29.34 75.0226 29.1487 75.0471 28.7323C75.0698 28.3455 75.3635 28.173 75.7108 28.1111C76.1099 28.0404 76.5222 28.0303 76.9145 27.9347C79.4576 27.3166 80.9519 25.7167 80.7396 23.0684C80.6746 22.2551 80.6712 22.2554 81.5018 22.2241C82.3878 22.1901 83.0161 21.2774 82.7558 20.4218C82.6718 20.1462 82.5386 20.152 82.3513 20.3007C81.9204 20.6424 81.4191 20.6897 80.8911 20.7022C80.2159 20.7181 79.591 20.5417 78.9755 20.3053C77.2463 19.6412 75.5821 19.8113 73.9491 20.6451C72.5272 21.3713 71.7328 22.4906 71.7025 24.103C71.6715 25.7766 72.2651 27.0912 73.8838 27.8047C74.2804 27.9795 74.2767 28.1167 73.8924 28.367C73.4728 28.6398 73.0451 28.9001 72.618 29.1607C72.3336 29.3337 72.2617 29.5711 72.3599 29.8823C72.5554 30.5028 72.983 30.9179 73.5341 31.2231C73.9795 31.47 73.9807 31.4642 73.5452 31.7708C72.9435 32.1943 72.3637 32.6445 71.8467 33.171C71.2957 33.7322 71.1178 34.389 71.3096 35.1519C71.4584 35.7431 71.7428 36.2604 72.1694 36.689C73.2009 37.7269 74.4915 38.0411 75.9786 37.989C76.6793 38.0328 77.4377 37.9462 78.1727 37.7007ZM79.0048 32.1042C79.7656 32.3248 80.3194 32.7854 80.4789 33.5806C80.6417 34.3933 80.3582 35.1097 79.7542 35.6515C78.2789 36.9755 75.3135 36.8208 73.9607 35.3775C73.2689 34.6394 73.2168 33.6048 73.8571 32.8207C74.5286 31.9985 75.3828 31.5987 76.3492 31.7869C77.326 31.7583 78.1749 31.8632 79.0048 32.1042ZM74.9751 21.3384C75.965 20.7207 77.4536 21.1232 78.0257 22.1858C78.6529 23.3498 78.6962 24.5679 78.1748 25.7906C77.8822 26.4769 77.3306 26.8337 76.604 26.8624C75.6816 26.8986 74.9831 26.4636 74.5088 25.6872C74.1074 25.0304 73.9742 24.2972 73.9796 23.5331C73.9928 22.6566 74.1697 21.8412 74.9751 21.3384ZM61.172 21.5471C61.902 20.9959 62.5889 20.4821 63.3896 20.1545C65.7738 19.1791 67.9165 20.4092 68.3514 22.9883C68.4962 23.8442 68.4489 24.7033 68.4557 25.562C68.4647 26.7497 68.4609 27.9368 68.5236 29.1244C68.5475 29.5759 68.7235 29.827 69.1368 29.9387C69.3479 29.996 69.562 30.042 69.7759 30.0885C70.3165 30.2057 70.517 30.7568 70.1931 31.2239C70.0713 31.3996 69.9088 31.3639 69.7326 31.3575C68.1386 31.3007 66.5436 31.2601 64.9512 31.3821C64.6453 31.4053 64.4521 31.3221 64.4245 31.0091C64.3966 30.6943 64.2858 30.333 64.7101 30.1716C64.8252 30.1277 64.9541 30.1183 65.0765 30.0936C65.9008 29.9285 66.0606 29.7689 66.0606 28.9447C66.0606 27.2727 66.1179 25.5997 65.9808 23.9286C65.8661 22.5368 64.7086 21.6079 63.3151 21.8123C62.7811 21.8906 62.2889 22.0522 61.817 22.3206C61.337 22.5936 61.1548 23.0012 61.14 23.5195C61.0845 25.427 61.2306 27.3321 61.226 29.2395C61.2247 29.6775 61.4375 29.9445 61.8713 30.0293C62.0555 30.0652 62.239 30.1311 62.4236 30.133C62.8491 30.1372 62.9427 30.3671 62.924 30.741C62.8957 31.3072 62.827 31.3583 62.257 31.3422C60.6776 31.2963 59.0973 31.281 57.5189 31.3589C57.203 31.3744 57.028 31.3063 57.0004 30.9938C56.9719 30.674 56.8808 30.3091 57.3055 30.1637C57.5407 30.0832 57.792 30.0494 58.0365 29.9966C58.4274 29.912 58.6216 29.66 58.6522 29.2721C58.818 27.164 58.7268 25.0526 58.7421 22.9422C58.7443 22.6302 58.5906 22.4134 58.3188 22.2653C57.9601 22.0694 57.5815 21.9249 57.1981 21.7872C56.9625 21.7024 56.6942 21.6097 56.714 21.2936C56.7357 20.9506 57.0063 20.8321 57.2983 20.7844C58.2105 20.635 59.1062 20.4164 59.9907 20.1507C60.1849 20.0922 60.3755 20.0203 60.5672 19.954C61.0446 19.7891 61.2391 19.9335 61.2005 20.4515C61.1741 20.7919 61.0897 21.1292 61.172 21.5471ZM94.8109 28.1805C95.5678 26.4842 95.5919 24.7208 94.8843 22.9831C94.2649 21.4612 93.125 20.5043 91.5507 20.0752C90.8086 19.873 90.0453 19.8215 89.2771 19.9326C87.347 20.2125 85.7103 21.0023 84.6706 22.7231C83.9576 23.9037 83.8521 25.2093 83.9846 26.5705C84.2775 29.5832 86.35 31.5088 89.8664 31.5115C91.7745 31.3568 93.7749 30.5033 94.8109 28.1805ZM86.5904 23.3872C87.2236 20.7357 89.8381 20.6977 91.2596 21.994C92.3079 22.95 92.6829 24.2169 92.8045 25.5662C92.886 26.4689 92.8603 27.3791 92.6054 28.2649C92.112 29.9811 90.5342 30.7049 88.9162 29.9451C87.7369 29.3912 87.1245 28.3808 86.7553 27.1911C86.5313 26.4701 86.4097 25.7308 86.4656 25.0492C86.4493 24.439 86.4653 23.9099 86.5904 23.3872ZM54.2824 28.6884C55.3026 26.8926 55.387 24.9633 54.6339 23.0355C54.0382 21.5109 52.9092 20.5304 51.3341 20.0896C50.5772 19.8776 49.7994 19.8205 49.0153 19.9328C47.0849 20.2097 45.4505 20.9997 44.4042 22.717C43.6848 23.8976 43.5842 25.2022 43.7156 26.5628C44.0079 29.5843 46.0739 31.5099 49.6255 31.5118C51.2764 31.3958 53.1594 30.6657 54.2824 28.6884ZM52.3237 28.2993C51.8385 29.9721 50.2928 30.6787 48.6987 29.9712C47.9541 29.6409 47.3995 29.0995 47.0065 28.4045C46.1259 26.8473 45.9705 25.154 46.3242 23.4484C46.9003 20.6704 49.624 20.6771 51.0824 22.0855C52.0989 23.0671 52.4263 24.3445 52.5481 25.6957C52.5676 25.913 52.551 26.1331 52.551 26.3522C52.5895 27.0145 52.5076 27.6651 52.3237 28.2993Z" fill="black"/>
</g>
<defs>
<clipPath id="clip0_1_98">
<rect width="131" height="38" fill="white"/>
</clipPath>
</defs>
</svg>
