<svg width="136" height="40" viewBox="0 0 136 40" fill="none" xmlns="http://www.w3.org/2000/svg">
<g clip-path="url(#clip0_1_91)">
<path d="M111.328 21.531L107.377 22.5668L108.654 19.2748L112.466 18.2758L112.517 18.4655L111.328 21.531ZM106.18 22.6304L102.229 23.6665L103.506 20.3747L107.319 19.3752L107.37 19.5652L106.18 22.6304ZM104.864 16.0698L108.677 15.0705L108.728 15.2602L107.538 18.326L103.587 19.3615L104.864 16.0698ZM134.021 5.67531L135.994 0.590405L135.909 0.275374L116.388 5.39305C118.469 2.39681 117.754 -0.00582886 117.754 -0.00582886C117.754 -0.00582886 111.52 3.95532 106.805 3.85119C102.091 3.74706 100.571 2.49619 93.3422 4.78941C86.113 7.08264 84.07 14.1193 81.9748 15.6305C79.8795 17.1422 73.3051 22.0675 73.3051 22.0675L73.3197 22.1555L79.2466 20.2778C79.2466 20.2778 77.6212 21.8022 74.1678 26.433C74.1678 26.433 74.1078 26.378 74.0071 26.2837L74.0124 26.3154C74.0124 26.3154 76.7887 30.5372 79.5127 29.7554C79.7855 29.6772 80.0942 29.5463 80.4323 29.3759C81.5291 29.9835 82.9611 30.5813 84.5415 30.7457C84.5415 30.7457 83.4711 29.5088 82.5791 28.1002C82.8203 27.945 83.0673 27.7849 83.3194 27.6215L83.2036 27.7035L85.4614 28.528L85.2117 26.4174L85.2343 26.4037L87.4522 27.2137L87.176 25.2942C87.4533 25.1496 87.734 25.0117 88.018 24.8806L90.3303 16.1779L99.8904 9.68905L99.1307 11.5914C97.1927 16.3343 93.5518 17.4549 93.5518 17.4549L92.0324 18.0284C90.9025 19.3572 90.4272 19.6842 90.0386 24.1448C90.9497 23.9165 91.8204 23.8628 92.6088 24.074C96.6949 25.1687 98.1094 30.068 97.0094 31.4233C96.7342 31.7621 96.0787 32.3425 95.2505 33.0223H93.5927L93.5712 34.3588C93.5143 34.4029 93.4578 34.447 93.4007 34.4909H91.7139L91.6929 35.7954L91.2512 36.1276C89.6654 36.1604 87.6586 34.7851 87.6586 34.7851C87.6586 36.0359 88.7065 37.9644 88.7065 37.9644C88.7065 37.9644 88.7751 37.9317 88.8917 37.8746L88.7326 37.9906C88.7326 37.9906 92.9759 40.8053 95.6476 39.7627C98.0236 38.8355 104.173 34.0104 109.482 31.7278L125.546 27.5163L127.665 22.0559L115.423 25.2651V20.3607L129.783 16.596L131.902 11.1358L115.423 15.4556V10.5504L134.021 5.67531ZM60.5646 12.2751L60.6595 19.6329C60.6905 21.0733 60.7224 22.1378 60.6905 23.2653H60.7537C61.068 22.0125 61.3833 20.9797 61.918 19.3514L64.247 12.2754H68.212L63.177 24.3296C61.6664 27.8367 59.9356 30.7798 58.0473 32.5019C57.1351 33.3468 56.0649 34.0046 55.4043 34.2866L53.8308 31.0927C54.523 30.7481 55.2465 30.341 55.8761 29.8405C56.7577 29.12 57.6069 28.2434 57.9849 27.3979C58.0473 27.1786 58.1102 27.0224 58.0792 26.7095L56.4427 12.2754L60.5646 12.2751ZM49.6761 12.2751L49.8015 11.6487C50.1479 9.83309 50.8404 8.26744 52.1305 7.07736C53.0745 6.20071 54.4592 5.6687 56.0325 5.6687C57.0398 5.6687 57.7947 5.82516 58.267 5.98162L57.3859 8.98737C57.0087 8.86209 56.6623 8.79972 56.1587 8.79972C54.7424 8.79972 53.9245 10.2713 53.6725 11.6176L53.5465 12.2751H58.11L57.575 15.0306H53.0748L50.6515 27.5858H46.7181L49.1414 15.0306M44.0228 8.36127C44.0228 7.23434 44.8409 5.9507 46.2254 5.9507C47.5155 5.9507 48.114 6.9209 48.0821 7.98571C48.0508 9.55109 46.9808 10.4277 45.8163 10.4277C44.5573 10.4277 43.991 9.52043 44.0228 8.36127ZM40.341 27.5858L43.299 12.2751H47.2321L44.2744 27.5858H40.341ZM39.3964 8.14217L38.6097 12.2751H44.6524L44.1487 15.0306H38.0747L36.7216 22.1381C36.6273 22.6701 36.5954 23.1397 36.5954 23.4217C36.5954 24.361 37.0677 24.7054 37.7915 24.7054C38.0747 24.7054 38.484 24.7054 38.8615 24.6427L38.3892 27.5858C37.6656 27.774 36.7845 27.8367 36.0291 27.8367C33.6693 27.8367 32.5043 26.5213 32.5043 24.4548C32.5043 23.7664 32.6304 22.9206 32.7877 22.169L34.141 15.0306H32.3473L32.8825 12.2751H34.6763L35.3053 9.1129L39.3964 8.14217ZM22.0259 24.2355C22.6554 24.5798 23.4109 24.8928 24.5121 24.8618C25.645 24.8306 26.274 24.1102 26.274 23.1397C26.274 22.294 25.8652 21.6994 24.7953 20.8542C23.4738 19.7893 22.8443 18.4431 22.8443 17.128C22.8443 14.3099 25.0468 12.0246 28.5398 12.0246C29.8932 12.0246 30.8683 12.2748 31.4349 12.5875L30.5849 15.4371C30.1445 15.1868 29.4209 14.9677 28.76 14.9677C27.5015 14.9677 26.7147 15.6252 26.7147 16.6581C26.7147 17.4409 27.1554 17.9108 27.8792 18.5054C29.6097 19.8208 30.1763 21.3233 30.1763 22.5131C30.1763 25.8944 27.816 27.7735 24.2917 27.7735C22.8754 27.7735 21.6168 27.3662 21.0816 26.9907L22.0259 24.2355ZM17.2417 15.0308C16.9275 14.9682 16.6441 14.9368 16.4239 14.9368C13.8436 14.9368 12.4591 20.0404 12.4273 22.2945C12.4273 23.6411 12.6161 24.6113 13.592 24.6113C14.6614 24.6113 15.6684 22.8583 16.235 20.0716L17.2417 15.0308ZM15.8259 27.5861C15.8573 26.7721 15.9205 25.9266 15.9516 25.0186H15.8578C14.6306 27.0541 13.1511 27.8369 11.9239 27.8369C9.69 27.8369 8.58845 25.9266 8.58845 23.2338C8.58845 18.5998 10.9172 12.0251 17.5254 12.0251C19.0676 12.0251 20.6093 12.2754 21.5533 12.6509L19.8541 21.1668C19.4762 22.9516 19.193 25.9264 19.2246 27.5856L15.8259 27.5861ZM2.95561 12.2754L3.08098 11.649C3.42736 9.83335 4.11958 8.26771 5.40998 7.07762C6.35401 6.20124 7.73845 5.66896 9.31201 5.66896C10.3193 5.66896 11.0742 5.82542 11.5465 5.98188L10.6648 8.98789C10.2869 8.86236 9.94101 8.80025 9.43765 8.80025C8.02134 8.80025 7.20348 10.2715 6.9514 11.6181L6.8255 12.2754H9.81511L9.27987 15.0308H6.35401L3.93072 27.5861H-0.00318909L2.42037 15.0308" fill="black"/>
</g>
<defs>
<clipPath id="clip0_1_91">
<rect width="136" height="40" fill="white"/>
</clipPath>
</defs>
</svg>
